<mxfile host="app.diagrams.net" modified="2023-08-17T11:02:24.207Z" agent="Mozilla/5.0 (X11; Ubuntu; Linux x86_64; rv:109.0) Gecko/20100101 Firefox/114.0" etag="o6p7XKeeF6CGsqKKfpB2" version="21.6.6" type="google">
  <diagram name="Page-1" id="ApBc-LhkqVgu6jbV7BTa">
    <mxGraphModel grid="1" page="1" gridSize="10" guides="1" tooltips="1" connect="1" arrows="1" fold="1" pageScale="1" pageWidth="850" pageHeight="1100" math="0" shadow="0">
      <root>
        <mxCell id="0" />
        <mxCell id="1" parent="0" />
        <mxCell id="Lz4KBdw4iXTbjYxpN-TV-1" value="AIoDConcept" style="swimlane;fontStyle=0;childLayout=stackLayout;horizontal=1;startSize=26;horizontalStack=0;resizeParent=1;resizeParentMax=0;resizeLast=0;collapsible=1;marginBottom=0;align=center;fontSize=14;fillColor=#4E9DF0;" vertex="1" parent="1">
          <mxGeometry x="180" y="120" width="160" height="86" as="geometry" />
        </mxCell>
        <mxCell id="Lz4KBdw4iXTbjYxpN-TV-90" value="identifier: int" style="text;strokeColor=none;fillColor=none;spacingLeft=4;spacingRight=4;overflow=hidden;rotatable=0;points=[[0,0.5],[1,0.5]];portConstraint=eastwest;fontSize=12;whiteSpace=wrap;html=1;" vertex="1" parent="Lz4KBdw4iXTbjYxpN-TV-1">
          <mxGeometry y="26" width="160" height="30" as="geometry" />
        </mxCell>
        <mxCell id="Lz4KBdw4iXTbjYxpN-TV-9" value="aiodEntry: AIoDEntry" style="text;strokeColor=none;fillColor=none;spacingLeft=4;spacingRight=4;overflow=hidden;rotatable=0;points=[[0,0.5],[1,0.5]];portConstraint=eastwest;fontSize=12;whiteSpace=wrap;html=1;" vertex="1" parent="Lz4KBdw4iXTbjYxpN-TV-1">
          <mxGeometry y="56" width="160" height="30" as="geometry" />
        </mxCell>
        <mxCell id="Lz4KBdw4iXTbjYxpN-TV-5" value="AIoDEntry" style="swimlane;fontStyle=0;childLayout=stackLayout;horizontal=1;startSize=26;horizontalStack=0;resizeParent=1;resizeParentMax=0;resizeLast=0;collapsible=1;marginBottom=0;align=center;fontSize=14;" vertex="1" parent="1">
          <mxGeometry x="450" y="149" width="160" height="176" as="geometry" />
        </mxCell>
        <mxCell id="Lz4KBdw4iXTbjYxpN-TV-6" value="&lt;div&gt;platform: str&lt;/div&gt;" style="text;strokeColor=none;fillColor=none;spacingLeft=4;spacingRight=4;overflow=hidden;rotatable=0;points=[[0,0.5],[1,0.5]];portConstraint=eastwest;fontSize=12;whiteSpace=wrap;html=1;" vertex="1" parent="Lz4KBdw4iXTbjYxpN-TV-5">
          <mxGeometry y="26" width="160" height="30" as="geometry" />
        </mxCell>
        <mxCell id="Lz4KBdw4iXTbjYxpN-TV-7" value="&lt;div&gt;platformIdentifier: str&lt;/div&gt;" style="text;strokeColor=none;fillColor=none;spacingLeft=4;spacingRight=4;overflow=hidden;rotatable=0;points=[[0,0.5],[1,0.5]];portConstraint=eastwest;fontSize=12;whiteSpace=wrap;html=1;" vertex="1" parent="Lz4KBdw4iXTbjYxpN-TV-5">
          <mxGeometry y="56" width="160" height="30" as="geometry" />
        </mxCell>
        <mxCell id="Lz4KBdw4iXTbjYxpN-TV-8" value="editor: Person" style="text;strokeColor=none;fillColor=none;spacingLeft=4;spacingRight=4;overflow=hidden;rotatable=0;points=[[0,0.5],[1,0.5]];portConstraint=eastwest;fontSize=12;whiteSpace=wrap;html=1;" vertex="1" parent="Lz4KBdw4iXTbjYxpN-TV-5">
          <mxGeometry y="86" width="160" height="30" as="geometry" />
        </mxCell>
        <mxCell id="Lz4KBdw4iXTbjYxpN-TV-12" value="&lt;div&gt;dateCreated: datetime&lt;br&gt;&lt;/div&gt;" style="text;strokeColor=none;fillColor=none;spacingLeft=4;spacingRight=4;overflow=hidden;rotatable=0;points=[[0,0.5],[1,0.5]];portConstraint=eastwest;fontSize=12;whiteSpace=wrap;html=1;" vertex="1" parent="Lz4KBdw4iXTbjYxpN-TV-5">
          <mxGeometry y="116" width="160" height="30" as="geometry" />
        </mxCell>
        <mxCell id="Lz4KBdw4iXTbjYxpN-TV-10" value="..." style="text;strokeColor=none;fillColor=none;spacingLeft=4;spacingRight=4;overflow=hidden;rotatable=0;points=[[0,0.5],[1,0.5]];portConstraint=eastwest;fontSize=12;whiteSpace=wrap;html=1;" vertex="1" parent="Lz4KBdw4iXTbjYxpN-TV-5">
          <mxGeometry y="146" width="160" height="30" as="geometry" />
        </mxCell>
        <mxCell id="Lz4KBdw4iXTbjYxpN-TV-11" value="" style="endArrow=classic;html=1;rounded=0;exitX=1;exitY=0.5;exitDx=0;exitDy=0;" edge="1" parent="1" source="Lz4KBdw4iXTbjYxpN-TV-9">
          <mxGeometry width="50" height="50" relative="1" as="geometry">
            <mxPoint x="330" y="330" as="sourcePoint" />
            <mxPoint x="450" y="190.42105263157896" as="targetPoint" />
          </mxGeometry>
        </mxCell>
        <mxCell id="Lz4KBdw4iXTbjYxpN-TV-13" value="AIResource" style="swimlane;fontStyle=0;childLayout=stackLayout;horizontal=1;startSize=26;horizontalStack=0;resizeParent=1;resizeParentMax=0;resizeLast=0;collapsible=1;marginBottom=0;align=center;fontSize=14;fillColor=#4E9DF0;" vertex="1" parent="1">
          <mxGeometry x="180" y="231" width="160" height="236" as="geometry" />
        </mxCell>
        <mxCell id="Lz4KBdw4iXTbjYxpN-TV-14" value="name: str" style="text;strokeColor=none;fillColor=none;spacingLeft=4;spacingRight=4;overflow=hidden;rotatable=0;points=[[0,0.5],[1,0.5]];portConstraint=eastwest;fontSize=12;whiteSpace=wrap;html=1;" vertex="1" parent="Lz4KBdw4iXTbjYxpN-TV-13">
          <mxGeometry y="26" width="160" height="30" as="geometry" />
        </mxCell>
        <mxCell id="Lz4KBdw4iXTbjYxpN-TV-15" value="description: str" style="text;strokeColor=none;fillColor=none;spacingLeft=4;spacingRight=4;overflow=hidden;rotatable=0;points=[[0,0.5],[1,0.5]];portConstraint=eastwest;fontSize=12;whiteSpace=wrap;html=1;" vertex="1" parent="Lz4KBdw4iXTbjYxpN-TV-13">
          <mxGeometry y="56" width="160" height="30" as="geometry" />
        </mxCell>
        <mxCell id="Lz4KBdw4iXTbjYxpN-TV-16" value="keyword: []str" style="text;strokeColor=none;fillColor=none;spacingLeft=4;spacingRight=4;overflow=hidden;rotatable=0;points=[[0,0.5],[1,0.5]];portConstraint=eastwest;fontSize=12;whiteSpace=wrap;html=1;" vertex="1" parent="Lz4KBdw4iXTbjYxpN-TV-13">
          <mxGeometry y="86" width="160" height="30" as="geometry" />
        </mxCell>
        <mxCell id="Lz4KBdw4iXTbjYxpN-TV-55" value="image: []Multimedia" style="text;strokeColor=none;fillColor=none;spacingLeft=4;spacingRight=4;overflow=hidden;rotatable=0;points=[[0,0.5],[1,0.5]];portConstraint=eastwest;fontSize=12;whiteSpace=wrap;html=1;" vertex="1" parent="Lz4KBdw4iXTbjYxpN-TV-13">
          <mxGeometry y="116" width="160" height="30" as="geometry" />
        </mxCell>
        <mxCell id="Lz4KBdw4iXTbjYxpN-TV-56" value="contact: Person" style="text;strokeColor=none;fillColor=none;spacingLeft=4;spacingRight=4;overflow=hidden;rotatable=0;points=[[0,0.5],[1,0.5]];portConstraint=eastwest;fontSize=12;whiteSpace=wrap;html=1;" vertex="1" parent="Lz4KBdw4iXTbjYxpN-TV-13">
          <mxGeometry y="146" width="160" height="30" as="geometry" />
        </mxCell>
        <mxCell id="Lz4KBdw4iXTbjYxpN-TV-88" value="isPartOf" style="text;strokeColor=none;fillColor=none;spacingLeft=4;spacingRight=4;overflow=hidden;rotatable=0;points=[[0,0.5],[1,0.5]];portConstraint=eastwest;fontSize=12;whiteSpace=wrap;html=1;" vertex="1" parent="Lz4KBdw4iXTbjYxpN-TV-13">
          <mxGeometry y="176" width="160" height="30" as="geometry" />
        </mxCell>
        <mxCell id="Lz4KBdw4iXTbjYxpN-TV-18" value="..." style="text;strokeColor=none;fillColor=none;spacingLeft=4;spacingRight=4;overflow=hidden;rotatable=0;points=[[0,0.5],[1,0.5]];portConstraint=eastwest;fontSize=12;whiteSpace=wrap;html=1;" vertex="1" parent="Lz4KBdw4iXTbjYxpN-TV-13">
          <mxGeometry y="206" width="160" height="30" as="geometry" />
        </mxCell>
        <mxCell id="Lz4KBdw4iXTbjYxpN-TV-89" value="" style="curved=1;endArrow=classic;html=1;rounded=0;entryX=1;entryY=0.5;entryDx=0;entryDy=0;" edge="1" parent="Lz4KBdw4iXTbjYxpN-TV-13" source="Lz4KBdw4iXTbjYxpN-TV-88" target="Lz4KBdw4iXTbjYxpN-TV-88">
          <mxGeometry width="50" height="50" relative="1" as="geometry">
            <mxPoint x="172" y="214" as="sourcePoint" />
            <mxPoint x="222" y="164" as="targetPoint" />
            <Array as="points">
              <mxPoint x="222" y="214" />
              <mxPoint x="222" y="164" />
            </Array>
          </mxGeometry>
        </mxCell>
        <mxCell id="Lz4KBdw4iXTbjYxpN-TV-20" value="Metadata of the Metadata" style="shape=note;whiteSpace=wrap;html=1;backgroundOutline=1;darkOpacity=0.05;" vertex="1" parent="1">
          <mxGeometry x="580" y="120" width="80" height="100" as="geometry" />
        </mxCell>
        <mxCell id="Lz4KBdw4iXTbjYxpN-TV-21" value="" style="endArrow=none;dashed=1;html=1;dashPattern=1 3;strokeWidth=2;rounded=0;startArrow=classic;startFill=1;" edge="1" parent="1" source="Lz4KBdw4iXTbjYxpN-TV-13" target="Lz4KBdw4iXTbjYxpN-TV-1">
          <mxGeometry width="50" height="50" relative="1" as="geometry">
            <mxPoint x="480" y="450" as="sourcePoint" />
            <mxPoint x="530" y="400" as="targetPoint" />
          </mxGeometry>
        </mxCell>
        <mxCell id="Lz4KBdw4iXTbjYxpN-TV-22" value="AIAsset" style="swimlane;fontStyle=0;childLayout=stackLayout;horizontal=1;startSize=26;horizontalStack=0;resizeParent=1;resizeParentMax=0;resizeLast=0;collapsible=1;marginBottom=0;align=center;fontSize=14;fillColor=#4E9DF0;" vertex="1" parent="1">
          <mxGeometry x="180" y="541" width="160" height="146" as="geometry" />
        </mxCell>
        <mxCell id="Lz4KBdw4iXTbjYxpN-TV-23" value="distribution: []Distribution" style="text;spacingLeft=4;spacingRight=4;overflow=hidden;rotatable=0;points=[[0,0.5],[1,0.5]];portConstraint=eastwest;fontSize=12;whiteSpace=wrap;html=1;" vertex="1" parent="Lz4KBdw4iXTbjYxpN-TV-22">
          <mxGeometry y="26" width="160" height="30" as="geometry" />
        </mxCell>
        <mxCell id="Lz4KBdw4iXTbjYxpN-TV-24" value="license: URL" style="text;strokeColor=none;fillColor=none;spacingLeft=4;spacingRight=4;overflow=hidden;rotatable=0;points=[[0,0.5],[1,0.5]];portConstraint=eastwest;fontSize=12;whiteSpace=wrap;html=1;" vertex="1" parent="Lz4KBdw4iXTbjYxpN-TV-22">
          <mxGeometry y="56" width="160" height="30" as="geometry" />
        </mxCell>
        <mxCell id="Lz4KBdw4iXTbjYxpN-TV-25" value="version: str" style="text;strokeColor=none;fillColor=none;spacingLeft=4;spacingRight=4;overflow=hidden;rotatable=0;points=[[0,0.5],[1,0.5]];portConstraint=eastwest;fontSize=12;whiteSpace=wrap;html=1;" vertex="1" parent="Lz4KBdw4iXTbjYxpN-TV-22">
          <mxGeometry y="86" width="160" height="30" as="geometry" />
        </mxCell>
        <mxCell id="Lz4KBdw4iXTbjYxpN-TV-26" value="..." style="text;strokeColor=none;fillColor=none;spacingLeft=4;spacingRight=4;overflow=hidden;rotatable=0;points=[[0,0.5],[1,0.5]];portConstraint=eastwest;fontSize=12;whiteSpace=wrap;html=1;" vertex="1" parent="Lz4KBdw4iXTbjYxpN-TV-22">
          <mxGeometry y="116" width="160" height="30" as="geometry" />
        </mxCell>
        <mxCell id="Lz4KBdw4iXTbjYxpN-TV-27" value="" style="endArrow=none;dashed=1;html=1;dashPattern=1 3;strokeWidth=2;rounded=0;startArrow=classic;startFill=1;" edge="1" parent="1" source="Lz4KBdw4iXTbjYxpN-TV-22" target="Lz4KBdw4iXTbjYxpN-TV-13">
          <mxGeometry width="50" height="50" relative="1" as="geometry">
            <mxPoint x="270" y="260" as="sourcePoint" />
            <mxPoint x="390" y="430" as="targetPoint" />
          </mxGeometry>
        </mxCell>
        <mxCell id="Lz4KBdw4iXTbjYxpN-TV-28" value="Distribution" style="swimlane;fontStyle=0;childLayout=stackLayout;horizontal=1;startSize=26;horizontalStack=0;resizeParent=1;resizeParentMax=0;resizeLast=0;collapsible=1;marginBottom=0;align=center;fontSize=14;" vertex="1" parent="1">
          <mxGeometry x="402" y="507" width="160" height="146" as="geometry" />
        </mxCell>
        <mxCell id="Lz4KBdw4iXTbjYxpN-TV-29" value="&lt;div&gt;contentUrl: URL&lt;/div&gt;" style="text;strokeColor=none;fillColor=none;spacingLeft=4;spacingRight=4;overflow=hidden;rotatable=0;points=[[0,0.5],[1,0.5]];portConstraint=eastwest;fontSize=12;whiteSpace=wrap;html=1;" vertex="1" parent="Lz4KBdw4iXTbjYxpN-TV-28">
          <mxGeometry y="26" width="160" height="30" as="geometry" />
        </mxCell>
        <mxCell id="Lz4KBdw4iXTbjYxpN-TV-30" value="fileName: str" style="text;strokeColor=none;fillColor=none;spacingLeft=4;spacingRight=4;overflow=hidden;rotatable=0;points=[[0,0.5],[1,0.5]];portConstraint=eastwest;fontSize=12;whiteSpace=wrap;html=1;" vertex="1" parent="Lz4KBdw4iXTbjYxpN-TV-28">
          <mxGeometry y="56" width="160" height="30" as="geometry" />
        </mxCell>
        <mxCell id="Lz4KBdw4iXTbjYxpN-TV-31" value="checksum: []Checksum" style="text;strokeColor=none;fillColor=none;spacingLeft=4;spacingRight=4;overflow=hidden;rotatable=0;points=[[0,0.5],[1,0.5]];portConstraint=eastwest;fontSize=12;whiteSpace=wrap;html=1;" vertex="1" parent="Lz4KBdw4iXTbjYxpN-TV-28">
          <mxGeometry y="86" width="160" height="30" as="geometry" />
        </mxCell>
        <mxCell id="Lz4KBdw4iXTbjYxpN-TV-34" value="..." style="text;strokeColor=none;fillColor=none;spacingLeft=4;spacingRight=4;overflow=hidden;rotatable=0;points=[[0,0.5],[1,0.5]];portConstraint=eastwest;fontSize=12;whiteSpace=wrap;html=1;" vertex="1" parent="Lz4KBdw4iXTbjYxpN-TV-28">
          <mxGeometry y="116" width="160" height="30" as="geometry" />
        </mxCell>
        <mxCell id="Lz4KBdw4iXTbjYxpN-TV-35" value="" style="endArrow=classic;html=1;rounded=0;" edge="1" parent="1" source="Lz4KBdw4iXTbjYxpN-TV-23" target="Lz4KBdw4iXTbjYxpN-TV-28">
          <mxGeometry width="50" height="50" relative="1" as="geometry">
            <mxPoint x="350" y="252" as="sourcePoint" />
            <mxPoint x="460" y="253" as="targetPoint" />
          </mxGeometry>
        </mxCell>
        <mxCell id="Lz4KBdw4iXTbjYxpN-TV-36" value="Dataset" style="swimlane;fontStyle=0;childLayout=stackLayout;horizontal=1;startSize=26;horizontalStack=0;resizeParent=1;resizeParentMax=0;resizeLast=0;collapsible=1;marginBottom=0;align=center;fontSize=14;fillColor=#54AD2B;" vertex="1" parent="1">
          <mxGeometry x="180" y="761" width="160" height="146" as="geometry" />
        </mxCell>
        <mxCell id="Lz4KBdw4iXTbjYxpN-TV-37" value="spatialCoverage: Location" style="text;strokeColor=none;fillColor=none;spacingLeft=4;spacingRight=4;overflow=hidden;rotatable=0;points=[[0,0.5],[1,0.5]];portConstraint=eastwest;fontSize=12;whiteSpace=wrap;html=1;" vertex="1" parent="Lz4KBdw4iXTbjYxpN-TV-36">
          <mxGeometry y="26" width="160" height="30" as="geometry" />
        </mxCell>
        <mxCell id="Lz4KBdw4iXTbjYxpN-TV-38" value="temporalCoverage: str" style="text;strokeColor=none;fillColor=none;spacingLeft=4;spacingRight=4;overflow=hidden;rotatable=0;points=[[0,0.5],[1,0.5]];portConstraint=eastwest;fontSize=12;whiteSpace=wrap;html=1;" vertex="1" parent="Lz4KBdw4iXTbjYxpN-TV-36">
          <mxGeometry y="56" width="160" height="30" as="geometry" />
        </mxCell>
        <mxCell id="Lz4KBdw4iXTbjYxpN-TV-39" value="columns: ???" style="text;strokeColor=none;fillColor=none;spacingLeft=4;spacingRight=4;overflow=hidden;rotatable=0;points=[[0,0.5],[1,0.5]];portConstraint=eastwest;fontSize=12;whiteSpace=wrap;html=1;" vertex="1" parent="Lz4KBdw4iXTbjYxpN-TV-36">
          <mxGeometry y="86" width="160" height="30" as="geometry" />
        </mxCell>
        <mxCell id="Lz4KBdw4iXTbjYxpN-TV-40" value="..." style="text;strokeColor=none;fillColor=none;spacingLeft=4;spacingRight=4;overflow=hidden;rotatable=0;points=[[0,0.5],[1,0.5]];portConstraint=eastwest;fontSize=12;whiteSpace=wrap;html=1;" vertex="1" parent="Lz4KBdw4iXTbjYxpN-TV-36">
          <mxGeometry y="116" width="160" height="30" as="geometry" />
        </mxCell>
        <mxCell id="Lz4KBdw4iXTbjYxpN-TV-42" value="" style="endArrow=none;dashed=1;html=1;dashPattern=1 3;strokeWidth=2;rounded=0;startArrow=classic;startFill=1;" edge="1" parent="1" source="Lz4KBdw4iXTbjYxpN-TV-36" target="Lz4KBdw4iXTbjYxpN-TV-22">
          <mxGeometry width="50" height="50" relative="1" as="geometry">
            <mxPoint x="580" y="915" as="sourcePoint" />
            <mxPoint x="580" y="682" as="targetPoint" />
          </mxGeometry>
        </mxCell>
        <mxCell id="Lz4KBdw4iXTbjYxpN-TV-43" value="" style="endArrow=none;dashed=1;html=1;dashPattern=1 3;strokeWidth=2;rounded=0;startArrow=classic;startFill=1;" edge="1" parent="1" source="Lz4KBdw4iXTbjYxpN-TV-44" target="Lz4KBdw4iXTbjYxpN-TV-26">
          <mxGeometry width="50" height="50" relative="1" as="geometry">
            <mxPoint x="270" y="771" as="sourcePoint" />
            <mxPoint x="270" y="697" as="targetPoint" />
            <Array as="points">
              <mxPoint x="482" y="722" />
            </Array>
          </mxGeometry>
        </mxCell>
        <mxCell id="Lz4KBdw4iXTbjYxpN-TV-44" value="MLModel" style="swimlane;fontStyle=0;childLayout=stackLayout;horizontal=1;startSize=26;horizontalStack=0;resizeParent=1;resizeParentMax=0;resizeLast=0;collapsible=1;marginBottom=0;align=center;fontSize=14;fillColor=#54AD2B;" vertex="1" parent="1">
          <mxGeometry x="402" y="761" width="160" height="146" as="geometry" />
        </mxCell>
        <mxCell id="Lz4KBdw4iXTbjYxpN-TV-45" value="hardwareRequirement: CR" style="text;strokeColor=none;fillColor=none;spacingLeft=4;spacingRight=4;overflow=hidden;rotatable=0;points=[[0,0.5],[1,0.5]];portConstraint=eastwest;fontSize=12;whiteSpace=wrap;html=1;" vertex="1" parent="Lz4KBdw4iXTbjYxpN-TV-44">
          <mxGeometry y="26" width="160" height="30" as="geometry" />
        </mxCell>
        <mxCell id="Lz4KBdw4iXTbjYxpN-TV-46" value="osRequirement: CR" style="text;strokeColor=none;fillColor=none;spacingLeft=4;spacingRight=4;overflow=hidden;rotatable=0;points=[[0,0.5],[1,0.5]];portConstraint=eastwest;fontSize=12;whiteSpace=wrap;html=1;" vertex="1" parent="Lz4KBdw4iXTbjYxpN-TV-44">
          <mxGeometry y="56" width="160" height="30" as="geometry" />
        </mxCell>
        <mxCell id="Lz4KBdw4iXTbjYxpN-TV-47" value="compilationProcess: URL" style="text;strokeColor=none;fillColor=none;spacingLeft=4;spacingRight=4;overflow=hidden;rotatable=0;points=[[0,0.5],[1,0.5]];portConstraint=eastwest;fontSize=12;whiteSpace=wrap;html=1;" vertex="1" parent="Lz4KBdw4iXTbjYxpN-TV-44">
          <mxGeometry y="86" width="160" height="30" as="geometry" />
        </mxCell>
        <mxCell id="Lz4KBdw4iXTbjYxpN-TV-48" value="..." style="text;strokeColor=none;fillColor=none;spacingLeft=4;spacingRight=4;overflow=hidden;rotatable=0;points=[[0,0.5],[1,0.5]];portConstraint=eastwest;fontSize=12;whiteSpace=wrap;html=1;" vertex="1" parent="Lz4KBdw4iXTbjYxpN-TV-44">
          <mxGeometry y="116" width="160" height="30" as="geometry" />
        </mxCell>
        <mxCell id="Lz4KBdw4iXTbjYxpN-TV-49" value="Experiment" style="swimlane;fontStyle=0;childLayout=stackLayout;horizontal=1;startSize=26;horizontalStack=0;resizeParent=1;resizeParentMax=0;resizeLast=0;collapsible=1;marginBottom=0;align=center;fontSize=14;fillColor=#54AD2B;" vertex="1" parent="1">
          <mxGeometry x="590" y="761" width="160" height="146" as="geometry" />
        </mxCell>
        <mxCell id="Lz4KBdw4iXTbjYxpN-TV-50" value="hardwareRequirement: CR" style="text;strokeColor=none;fillColor=none;spacingLeft=4;spacingRight=4;overflow=hidden;rotatable=0;points=[[0,0.5],[1,0.5]];portConstraint=eastwest;fontSize=12;whiteSpace=wrap;html=1;" vertex="1" parent="Lz4KBdw4iXTbjYxpN-TV-49">
          <mxGeometry y="26" width="160" height="30" as="geometry" />
        </mxCell>
        <mxCell id="Lz4KBdw4iXTbjYxpN-TV-51" value="osRequirement: CR" style="text;strokeColor=none;fillColor=none;spacingLeft=4;spacingRight=4;overflow=hidden;rotatable=0;points=[[0,0.5],[1,0.5]];portConstraint=eastwest;fontSize=12;whiteSpace=wrap;html=1;" vertex="1" parent="Lz4KBdw4iXTbjYxpN-TV-49">
          <mxGeometry y="56" width="160" height="30" as="geometry" />
        </mxCell>
        <mxCell id="Lz4KBdw4iXTbjYxpN-TV-52" value="compilationProcess: URL" style="text;strokeColor=none;fillColor=none;spacingLeft=4;spacingRight=4;overflow=hidden;rotatable=0;points=[[0,0.5],[1,0.5]];portConstraint=eastwest;fontSize=12;whiteSpace=wrap;html=1;" vertex="1" parent="Lz4KBdw4iXTbjYxpN-TV-49">
          <mxGeometry y="86" width="160" height="30" as="geometry" />
        </mxCell>
        <mxCell id="Lz4KBdw4iXTbjYxpN-TV-53" value="..." style="text;strokeColor=none;fillColor=none;spacingLeft=4;spacingRight=4;overflow=hidden;rotatable=0;points=[[0,0.5],[1,0.5]];portConstraint=eastwest;fontSize=12;whiteSpace=wrap;html=1;" vertex="1" parent="Lz4KBdw4iXTbjYxpN-TV-49">
          <mxGeometry y="116" width="160" height="30" as="geometry" />
        </mxCell>
        <mxCell id="Lz4KBdw4iXTbjYxpN-TV-54" value="" style="endArrow=none;dashed=1;html=1;dashPattern=1 3;strokeWidth=2;rounded=0;startArrow=classic;startFill=1;entryX=1.025;entryY=0.767;entryDx=0;entryDy=0;entryPerimeter=0;" edge="1" parent="1" source="Lz4KBdw4iXTbjYxpN-TV-49" target="Lz4KBdw4iXTbjYxpN-TV-26">
          <mxGeometry width="50" height="50" relative="1" as="geometry">
            <mxPoint x="418" y="771" as="sourcePoint" />
            <mxPoint x="344" y="697" as="targetPoint" />
            <Array as="points">
              <mxPoint x="670" y="712" />
            </Array>
          </mxGeometry>
        </mxCell>
        <mxCell id="Lz4KBdw4iXTbjYxpN-TV-57" value="Service" style="swimlane;fontStyle=0;childLayout=stackLayout;horizontal=1;startSize=26;horizontalStack=0;resizeParent=1;resizeParentMax=0;resizeLast=0;collapsible=1;marginBottom=0;align=center;fontSize=14;fillColor=#54AD2B;" vertex="1" parent="1">
          <mxGeometry x="-440" y="541" width="160" height="70" as="geometry" />
        </mxCell>
        <mxCell id="Lz4KBdw4iXTbjYxpN-TV-61" value="&lt;div&gt;slogan: str&lt;/div&gt;&lt;div&gt;termsOfService: str&lt;br&gt;&lt;/div&gt;" style="text;strokeColor=none;fillColor=none;spacingLeft=4;spacingRight=4;overflow=hidden;rotatable=0;points=[[0,0.5],[1,0.5]];portConstraint=eastwest;fontSize=12;whiteSpace=wrap;html=1;" vertex="1" parent="Lz4KBdw4iXTbjYxpN-TV-57">
          <mxGeometry y="26" width="160" height="44" as="geometry" />
        </mxCell>
        <mxCell id="Lz4KBdw4iXTbjYxpN-TV-62" value="Organisation" style="swimlane;fontStyle=0;childLayout=stackLayout;horizontal=1;startSize=26;horizontalStack=0;resizeParent=1;resizeParentMax=0;resizeLast=0;collapsible=1;marginBottom=0;align=center;fontSize=14;fillColor=#54AD2B;" vertex="1" parent="1">
          <mxGeometry x="-47" y="663" width="160" height="146" as="geometry" />
        </mxCell>
        <mxCell id="Lz4KBdw4iXTbjYxpN-TV-63" value="dateFounded: datetime" style="text;strokeColor=none;fillColor=none;spacingLeft=4;spacingRight=4;overflow=hidden;rotatable=0;points=[[0,0.5],[1,0.5]];portConstraint=eastwest;fontSize=12;whiteSpace=wrap;html=1;" vertex="1" parent="Lz4KBdw4iXTbjYxpN-TV-62">
          <mxGeometry y="26" width="160" height="30" as="geometry" />
        </mxCell>
        <mxCell id="Lz4KBdw4iXTbjYxpN-TV-64" value="legalName: str" style="text;strokeColor=none;fillColor=none;spacingLeft=4;spacingRight=4;overflow=hidden;rotatable=0;points=[[0,0.5],[1,0.5]];portConstraint=eastwest;fontSize=12;whiteSpace=wrap;html=1;" vertex="1" parent="Lz4KBdw4iXTbjYxpN-TV-62">
          <mxGeometry y="56" width="160" height="30" as="geometry" />
        </mxCell>
        <mxCell id="Lz4KBdw4iXTbjYxpN-TV-65" value="member: []Person" style="text;strokeColor=none;fillColor=none;spacingLeft=4;spacingRight=4;overflow=hidden;rotatable=0;points=[[0,0.5],[1,0.5]];portConstraint=eastwest;fontSize=12;whiteSpace=wrap;html=1;" vertex="1" parent="Lz4KBdw4iXTbjYxpN-TV-62">
          <mxGeometry y="86" width="160" height="30" as="geometry" />
        </mxCell>
        <mxCell id="Lz4KBdw4iXTbjYxpN-TV-66" value="..." style="text;strokeColor=none;fillColor=none;spacingLeft=4;spacingRight=4;overflow=hidden;rotatable=0;points=[[0,0.5],[1,0.5]];portConstraint=eastwest;fontSize=12;whiteSpace=wrap;html=1;" vertex="1" parent="Lz4KBdw4iXTbjYxpN-TV-62">
          <mxGeometry y="116" width="160" height="30" as="geometry" />
        </mxCell>
        <mxCell id="Lz4KBdw4iXTbjYxpN-TV-67" value="Person" style="swimlane;fontStyle=0;childLayout=stackLayout;horizontal=1;startSize=26;horizontalStack=0;resizeParent=1;resizeParentMax=0;resizeLast=0;collapsible=1;marginBottom=0;align=center;fontSize=14;fillColor=#54AD2B;" vertex="1" parent="1">
          <mxGeometry x="-237" y="689" width="160" height="116" as="geometry" />
        </mxCell>
        <mxCell id="Lz4KBdw4iXTbjYxpN-TV-68" value="knowsAbout: str" style="text;strokeColor=none;fillColor=none;spacingLeft=4;spacingRight=4;overflow=hidden;rotatable=0;points=[[0,0.5],[1,0.5]];portConstraint=eastwest;fontSize=12;whiteSpace=wrap;html=1;" vertex="1" parent="Lz4KBdw4iXTbjYxpN-TV-67">
          <mxGeometry y="26" width="160" height="30" as="geometry" />
        </mxCell>
        <mxCell id="Lz4KBdw4iXTbjYxpN-TV-69" value="memberOf: Organisation" style="text;strokeColor=none;fillColor=none;spacingLeft=4;spacingRight=4;overflow=hidden;rotatable=0;points=[[0,0.5],[1,0.5]];portConstraint=eastwest;fontSize=12;whiteSpace=wrap;html=1;" vertex="1" parent="Lz4KBdw4iXTbjYxpN-TV-67">
          <mxGeometry y="56" width="160" height="30" as="geometry" />
        </mxCell>
        <mxCell id="Lz4KBdw4iXTbjYxpN-TV-70" value="languages: []str" style="text;strokeColor=none;fillColor=none;spacingLeft=4;spacingRight=4;overflow=hidden;rotatable=0;points=[[0,0.5],[1,0.5]];portConstraint=eastwest;fontSize=12;whiteSpace=wrap;html=1;" vertex="1" parent="Lz4KBdw4iXTbjYxpN-TV-67">
          <mxGeometry y="86" width="160" height="30" as="geometry" />
        </mxCell>
        <mxCell id="Lz4KBdw4iXTbjYxpN-TV-72" value="Agent" style="swimlane;fontStyle=0;childLayout=stackLayout;horizontal=1;startSize=26;horizontalStack=0;resizeParent=1;resizeParentMax=0;resizeLast=0;collapsible=1;marginBottom=0;align=center;fontSize=14;fillColor=#4E9DF0;" vertex="1" parent="1">
          <mxGeometry x="-130" y="541" width="160" height="86" as="geometry" />
        </mxCell>
        <mxCell id="Lz4KBdw4iXTbjYxpN-TV-73" value="email: []str" style="text;spacingLeft=4;spacingRight=4;overflow=hidden;rotatable=0;points=[[0,0.5],[1,0.5]];portConstraint=eastwest;fontSize=12;whiteSpace=wrap;html=1;" vertex="1" parent="Lz4KBdw4iXTbjYxpN-TV-72">
          <mxGeometry y="26" width="160" height="30" as="geometry" />
        </mxCell>
        <mxCell id="Lz4KBdw4iXTbjYxpN-TV-74" value="telephone: []str" style="text;strokeColor=none;fillColor=none;spacingLeft=4;spacingRight=4;overflow=hidden;rotatable=0;points=[[0,0.5],[1,0.5]];portConstraint=eastwest;fontSize=12;whiteSpace=wrap;html=1;" vertex="1" parent="Lz4KBdw4iXTbjYxpN-TV-72">
          <mxGeometry y="56" width="160" height="30" as="geometry" />
        </mxCell>
        <mxCell id="Lz4KBdw4iXTbjYxpN-TV-82" value="" style="endArrow=none;dashed=1;html=1;dashPattern=1 3;strokeWidth=2;rounded=0;startArrow=classic;startFill=1;" edge="1" parent="1" source="Lz4KBdw4iXTbjYxpN-TV-67" target="Lz4KBdw4iXTbjYxpN-TV-72">
          <mxGeometry width="50" height="50" relative="1" as="geometry">
            <mxPoint x="-20" y="954" as="sourcePoint" />
            <mxPoint x="-20" y="880" as="targetPoint" />
          </mxGeometry>
        </mxCell>
        <mxCell id="Lz4KBdw4iXTbjYxpN-TV-83" value="" style="endArrow=none;dashed=1;html=1;dashPattern=1 3;strokeWidth=2;rounded=0;startArrow=classic;startFill=1;" edge="1" parent="1" source="Lz4KBdw4iXTbjYxpN-TV-62" target="Lz4KBdw4iXTbjYxpN-TV-72">
          <mxGeometry width="50" height="50" relative="1" as="geometry">
            <mxPoint x="-109" y="699" as="sourcePoint" />
            <mxPoint x="-68" y="637" as="targetPoint" />
          </mxGeometry>
        </mxCell>
        <mxCell id="Lz4KBdw4iXTbjYxpN-TV-85" value="" style="endArrow=classic;html=1;rounded=0;" edge="1" parent="1" source="Lz4KBdw4iXTbjYxpN-TV-69" target="Lz4KBdw4iXTbjYxpN-TV-65">
          <mxGeometry width="50" height="50" relative="1" as="geometry">
            <mxPoint x="-10" y="970" as="sourcePoint" />
            <mxPoint x="52" y="970" as="targetPoint" />
          </mxGeometry>
        </mxCell>
        <mxCell id="Lz4KBdw4iXTbjYxpN-TV-86" value="" style="endArrow=none;dashed=1;html=1;dashPattern=1 3;strokeWidth=2;rounded=0;startArrow=classic;startFill=1;" edge="1" parent="1" source="Lz4KBdw4iXTbjYxpN-TV-72" target="Lz4KBdw4iXTbjYxpN-TV-18">
          <mxGeometry width="50" height="50" relative="1" as="geometry">
            <mxPoint x="270" y="551" as="sourcePoint" />
            <mxPoint x="270" y="432" as="targetPoint" />
          </mxGeometry>
        </mxCell>
        <mxCell id="Lz4KBdw4iXTbjYxpN-TV-87" value="" style="endArrow=none;dashed=1;html=1;dashPattern=1 3;strokeWidth=2;rounded=0;startArrow=classic;startFill=1;" edge="1" parent="1" source="Lz4KBdw4iXTbjYxpN-TV-57" target="Lz4KBdw4iXTbjYxpN-TV-18">
          <mxGeometry width="50" height="50" relative="1" as="geometry">
            <mxPoint x="10" y="551" as="sourcePoint" />
            <mxPoint x="190" y="397" as="targetPoint" />
          </mxGeometry>
        </mxCell>
      </root>
    </mxGraphModel>
  </diagram>
</mxfile>
